<?xml version="1.0" standalone="no"?>
<!DOCTYPE svg PUBLIC "-//W3C//DTD SVG 20010904//EN"
 "http://www.w3.org/TR/2001/REC-SVG-20010904/DTD/svg10.dtd">
<svg version="1.0" xmlns="http://www.w3.org/2000/svg"
 width="300.000000pt" height="300.000000pt" viewBox="0 0 300.000000 300.000000"
 preserveAspectRatio="xMidYMid meet">
<metadata>
Created by potrace 1.10, written by Peter Selinger 2001-2011
</metadata>
<g transform="translate(0.000000,300.000000) scale(0.100000,-0.100000)"
fill="#000000" stroke="none">
<path d="M1310 2797 c-93 -28 -201 -85 -260 -136 l-45 -40 51 -52 52 -51 53
40 c111 82 208 115 343 114 238 -1 437 -145 517 -372 33 -93 33 -257 0 -350
-79 -223 -273 -365 -510 -374 l-83 -3 1 -311 2 -312 -278 0 -278 0 0 -75 0
-75 278 0 278 0 -3 -275 -3 -275 75 0 75 0 -3 275 -3 275 278 0 278 0 0 75 0
75 -277 0 -278 0 0 239 0 239 45 7 c130 19 274 94 375 195 86 86 139 171 177
285 23 70 27 96 27 210 0 114 -4 140 -27 210 -38 114 -91 199 -179 287 -61 61
-96 86 -170 122 -124 61 -188 76 -323 75 -84 0 -128 -5 -185 -22z m338 -32
c251 -59 446 -258 496 -507 20 -98 20 -168 0 -266 -48 -240 -238 -440 -476
-501 -100 -26 -107 -30 -123 -61 -20 -38 -20 -429 0 -477 8 -18 15 -34 17 -35
2 -1 118 -5 258 -8 l255 -5 0 -30 0 -30 -240 -2 c-243 -3 -275 -7 -292 -42 -4
-9 -10 -126 -13 -261 l-5 -245 -25 0 -25 0 -5 247 c-5 243 -5 247 -29 272
l-24 26 -246 2 -246 3 0 30 0 30 255 5 c140 3 256 7 257 8 24 23 28 68 33 327
l5 280 86 12 c156 22 269 80 371 191 210 228 208 573 -6 801 -197 210 -503
247 -745 91 -34 -22 -65 -40 -70 -40 -4 0 -16 9 -27 21 -19 21 -19 21 11 45
52 41 161 94 237 114 90 23 229 25 316 5z"/>
</g>
</svg>
